Coordinates
nRows=12
nColumns=24

# SIMM Motion File Header:
name Coordinates
datacolumns 24
datarows 12
otherdata 1
range 0.96133000000000002000 0.97233000000000003000
endheader
time	pelvis_tx	pelvis_ty	pelvis_tz	pelvis_tilt	pelvis_list	pelvis_rotation	hip_flexion_r	hip_adduction_r	hip_rotation_r	knee_angle_r	ankle_angle_r	subtalar_angle_r	mtp_angle_r	hip_flexion_l	hip_adduction_l	hip_rotation_l	knee_angle_l	ankle_angle_l	subtalar_angle_l	mtp_angle_l	lumbar_extension	lumbar_bending	lumbar_rotation
      0.96133000000000002000	     -0.49944775110011891000	      0.77982696347220137000	      0.22795197413012475000	     -3.61818025901499810000	     -4.54812617996449740000	      1.45686637822905650000	     21.44199971454776200000	      7.88399048335216700000	     -2.63348549176837480000	     -2.29456033475655290000	    -13.35596413428322500000	      0.00000000000000991329	      0.00000000000004418592	    -16.05743616374676500000	     -1.30016015362022960000	    -12.11996563178404400000	     -6.68364827562434010000	      8.16010387127616890000	      0.00000000000007638109	      0.00000000000002362944	      6.21871078623973350000	      3.46324614144872280000	    -10.77098141739911000000
      0.96233000000000002000	     -0.49863392064820550000	      0.77996494745907363000	      0.22806141479523864000	     -3.62218749970846330000	     -4.55535676195876340000	      1.42383234379165740000	     21.42393022010938000000	      7.90575198116427200000	     -2.64686404362933820000	     -2.38190020244832780000	    -13.28446923665279500000	      0.00000000000000989506	      0.00000000000004506725	    -16.02936056486377200000	     -1.32623293246280240000	    -12.11437114786624000000	     -6.82431067653735110000	      8.03380702126471210000	      0.00000000000007672556	      0.00000000000002376228	      6.22837924762941330000	      3.47837062484090700000	    -10.76126546611777200000
      0.96333000000000002000	     -0.49782134773808256000	      0.78010519549787394000	      0.22817003003607808000	     -3.62583028041491180000	     -4.56184737177841540000	      1.39124673095859250000	     21.40489443275241400000	      7.92662651159347220000	     -2.66121609897880160000	     -2.46859105896935960000	    -13.21101665516017800000	      0.00000000000000986350	      0.00000000000004597169	    -16.00011776224687700000	     -1.35188753489005920000	    -12.10850829316893900000	     -6.96707307711986260000	      7.90405930755167500000	      0.00000000000007706688	      0.00000000000002391000	      6.23742903417552340000	      3.49268650745494560000	    -10.75198811407922500000
      0.96433000000000002000	     -0.49701011759752334000	      0.78024749103341051000	      0.22827780471383177000	     -3.62917261908524980000	     -4.56761183519131380000	      1.35912277197581230000	     21.38493461633134300000	      7.94661926166274670000	     -2.67657757374361170000	     -2.55443710057996090000	    -13.13704114674432000000	      0.00000000000000983678	      0.00000000000004687867	    -15.96954606831130800000	     -1.37715566695122280000	    -12.10236079332891800000	     -7.11216226125237410000	      7.77160832016249790000	      0.00000000000007740423	      0.00000000000002408392	      6.24592958408567790000	      3.50620006928416660000	    -10.74313982350943100000
      0.96533000000000002000	     -0.49620023022652776000	      0.78039183406568313000	      0.22838473882849977000	     -3.63221451571947670000	     -4.57265015219745590000	      1.32746046684331720000	     21.36405077084616600000	      7.96573023137209460000	     -2.69294846792376900000	     -2.63943832728013070000	    -13.06254271140522100000	      0.00000000000000981489	      0.00000000000004778817	    -15.93764548305706800000	     -1.40203732864629240000	    -12.09592864834617700000	     -7.25957822893488470000	      7.63645405909717920000	      0.00000000000007773761	      0.00000000000002428405	      6.25388089735987760000	      3.51891131032856920000	    -10.73472059440839200000
      0.96633000000000002000	     -0.49539034285553213000	      0.78053617709795586000	      0.22849167294316777000	     -3.63525641235370410000	     -4.57768846920359800000	      1.29579816171082230000	     21.34316692536099000000	      7.98484120108144250000	     -2.70931936210392670000	     -2.72443955398030060000	    -12.98804427606612300000	      0.00000000000000979300	      0.00000000000004869767	    -15.90574489780282800000	     -1.42691899034136190000	    -12.08949650336343900000	     -7.40699419661739620000	      7.50129979803186050000	      0.00000000000007807099	      0.00000000000002448417	      6.26183221063407740000	      3.53162255137297130000	    -10.72630136530735500000
      0.96733000000000002000	     -0.49458355235873425000	      0.78068459904306231000	      0.22859670688047157000	     -3.63770622772363560000	     -4.58108825595751150000	      1.26520255648380700000	     21.32024567372218000000	      8.00196803287206930000	     -2.72774248454347570000	     -2.80730869131010910000	    -12.91238544154295200000	      0.00000000000000970880	      0.00000000000004980021	    -15.87067599739827300000	     -1.45093677079806000000	    -12.08234790922797900000	     -7.55992334813908420000	      7.36265644269948540000	      0.00000000000007840880	      0.00000000000002470343	      6.26864804454997420000	      3.54249523876684820000	    -10.71880593403976300000
      0.96833000000000002000	     -0.49377676186193631000	      0.78083302098816876000	      0.22870174081777536000	     -3.64015604309356710000	     -4.58448804271142500000	      1.23460695125679170000	     21.29732442208336700000	      8.01909486466269610000	     -2.74616560698302470000	     -2.89017782863991760000	    -12.83672660701978100000	      0.00000000000000962460	      0.00000000000005090275	    -15.83560709699371900000	     -1.47495455125475820000	    -12.07519931509252100000	     -7.71285249966077300000	      7.22401308736711110000	      0.00000000000007874661	      0.00000000000002492268	      6.27546387846587090000	      3.55336792616072520000	    -10.71131050277217200000
      0.96933000000000002000	     -0.49297155548028243000	      0.78098318749737450000	      0.22880582534812038000	     -3.64236953479309020000	     -4.58706627197676480000	      1.20455715341317120000	     21.27344129097128400000	      8.03523979906998060000	     -2.76543017931844130000	     -2.97199696647039160000	    -12.75902238985920300000	      0.00000000000000956296	      0.00000000000005191951	    -15.79884985070707700000	     -1.49854473288679530000	    -12.06767101064078500000	     -7.86864485421454950000	      7.08476798189266430000	      0.00000000000007909362	      0.00000000000002512154	      6.28178391122305070000	      3.56330476078117280000	    -10.70425614375329800000
      0.97033000000000003000	     -0.49216793321377261000	      0.78113509857067953000	      0.22890896047150663000	     -3.64434670282220450000	     -4.58882294375353260000	      1.17505316295294480000	     21.24859628038592900000	      8.05040283609392660000	     -2.78553620154972400000	     -3.05276610480153330000	    -12.67927279006122100000	      0.00000000000000952388	      0.00000000000005285048	    -15.76040425853835100000	     -1.52170731569417210000	    -12.05976299587277500000	     -8.02730041180040920000	      6.94492112627614680000	      0.00000000000007944984	      0.00000000000002530000	      6.28760814282151600000	      3.57230574262819230000	    -10.69764285698314400000
      0.97133000000000003000	     -0.49136431094726274000	      0.78128700964398456000	      0.22901209559489286000	     -3.64632387085131880000	     -4.59057961553029960000	      1.14554917249271940000	     21.22375126980056900000	      8.06556587311787080000	     -2.80564222378100720000	     -3.13353524313267370000	    -12.59952319026323400000	      0.00000000000000948480	      0.00000000000005378145	    -15.72195866636962300000	     -1.54486989850154830000	    -12.05185498110476400000	     -8.18595596938627250000	      6.80507427065962830000	      0.00000000000007980606	      0.00000000000002547846	      6.29343237441998050000	      3.58130672447521060000	    -10.69102957021299000000
      0.97233000000000003000	     -0.49056355596095869000	      0.78144158096933769000	      0.22911352393161927000	     -3.64797625743323060000	     -4.59093121957942960000	      1.11705435156598190000	     21.19726824022639300000	      8.07906161183913520000	     -2.82700962348969710000	     -3.21245576608271710000	    -12.51328948402968100000	      0.00000000000000944880	      0.00000000000005468318	    -15.68035350583192800000	     -1.56735802726699760000	    -12.04329310816661700000	     -8.34978508783668080000	      6.66488680449720490000	      0.00000000000008016407	      0.00000000000002567656	      6.29849430615917600000	      3.58868748046184250000	    -10.68519549759621300000
